# xmcd
#
# Track frame offsets: 
#        150
#        20733
#        38557
#        55467
#        72681
#        89756
#        106736
#        128188
#        144334
#        187487
#        190186
#        211970
#        221986
#        251432
#        252377
#        275731
#        287471
#        298152
#        319889
#
# Disc length: 4656 seconds
#
# Revision: 0
# Processed by: cddbd v1.5.2PL0 Copyright (c) Steve Scherf et al.
# Submitted via: ExactAudioCopy v0.99pb4
#
DISCID=42122e13
DTITLE=Smokey Robinson - The Solo Albums:  Vol 3
DYEAR=2010
DGENRE=Motown - 70s
TTITLE0=Vitamin U
TTITLE1=There Will Come A Day (I'm Gonna Happen To You)
TTITLE2=It's Been A Long Time (Since I Been In Love)
TTITLE3=Let's Do The Dance Of Life Together
TTITLE4=If You Want My Love
TTITLE5=You Cannot Laugh Alone
TTITLE6=In My Corner
TTITLE7=The Humming Song (Lost For Words)
TTITLE8=Theme From Big Time
TTITLE9=J.J.'s Theme
TTITLE10=Hip Trip
TTITLE11=He Is The Light Of The World
TTITLE12=So Nice To Be With You
TTITLE13=Shana's Theme (with Dialogue)
TTITLE14=If We're Gonna Act Like Lovers
TTITLE15=The Agony And The Ecstasy
TTITLE16=Theme From Big Time (Reprise)
TTITLE17=Mother's Son
TTITLE18=Pops, We Love You
EXTD=
EXTT0=
EXTT1=
EXTT2=
EXTT3=
EXTT4=
EXTT5=
EXTT6=
EXTT7=
EXTT8=
EXTT9=
EXTT10=
EXTT11=
EXTT12=
EXTT13=
EXTT14=
EXTT15=
EXTT16=
EXTT17=
EXTT18=
PLAYORDER=
